<svg xmlns="http://www.w3.org/2000/svg" width="289.62" height="246.37" viewBox="0 0 289.62 246.37"><title>LogoSVG-White</title><path d="M216.36,113.45,190.18,70.51,208.77,47.2a16.8,16.8,0,0,1,12.07-5.07h.51V40.91H193v1.18h1.11c3.25,0,4.65,2.85,2.75,5.55L169.24,87c0,.31,9.09,18.77,13.44,24.76,9.78,13.46,28.9,12.47,32.07,12.48H229v-1.16C224.46,122.93,220.24,119.64,216.36,113.45Z" transform="translate(-1.82)" fill="#fff"/><path d="M165.7,115.55V57.63L221.88,1.45,220.43,0l-59,59c-3.06-8.41-10.92-13-19.46-13.31,7.78.09,15.26-5.46,15.26-17.2,0-16.72-15.34-20.71-32.94-20.71H81.2V9.17h1.52a7.1,7.1,0,0,1,7.16,7.28V82.37a7.08,7.08,0,0,1-7.16,7.27H81.2V91h44.07c1.43,0,2.84,0,4.22-.09L70.31,150.13l1.44,1.44,60.83-60.82,6-6v30.77a7.31,7.31,0,0,1-7.38,7.28h-1.35v1.38h44.62v-1.38h-1.32A7.35,7.35,0,0,1,165.7,115.55ZM116.63,84.63V14H117c6.63,0,12.39,3.72,12.39,16.65,0,9-1.53,15.31-8.88,15.31v1.12c9.12-.15,11.65,7.6,11.65,17.93C132.13,79.37,124.88,84.36,116.63,84.63Z" transform="translate(-1.82)" fill="#fff"/><path d="M57.87,169.07a10.38,10.38,0,0,1,4.39.93,11.28,11.28,0,0,1,3.49,2.47A12,12,0,0,1,68.1,176a10.65,10.65,0,0,1,.85,4.2,11.18,11.18,0,0,1-1.4,5.51,11,11,0,0,1-3.89,4.06,11.64,11.64,0,0,1,4.83,4.42A12,12,0,0,1,66.8,209,12.51,12.51,0,0,1,63,211.61a11.15,11.15,0,0,1-4.6,1H41.37v-43.5Zm8.18,11.09a7.8,7.8,0,0,0-.66-3.2,8.86,8.86,0,0,0-1.75-2.61A7.54,7.54,0,0,0,61,172.6a8.13,8.13,0,0,0-3.16-.62H44.27v16.56h13.6a7.82,7.82,0,0,0,3.16-.66,7.9,7.9,0,0,0,2.61-1.78,8.65,8.65,0,0,0,1.75-2.67A8.31,8.31,0,0,0,66.05,180.16Zm-7.66,29.5a9,9,0,0,0,3.5-.69A8.5,8.5,0,0,0,64.76,207a9.06,9.06,0,0,0,1.92-2.9,9.16,9.16,0,0,0,.69-3.57,8.94,8.94,0,0,0-.69-3.49,9.14,9.14,0,0,0-4.79-4.89,8.63,8.63,0,0,0-3.5-.72H44.27v18.21Z" transform="translate(-1.82)" fill="#fff"/><path d="M84.46,199.23v13.34H81.69V177.85h9.84a10.14,10.14,0,0,1,4.25.89,10.8,10.8,0,0,1,3.37,2.37,11,11,0,0,1,2.21,3.43,10.47,10.47,0,0,1,.79,4,10.86,10.86,0,0,1-1.68,5.9,9.48,9.48,0,0,1-4.79,3.86l3.63,4.63c.53.66,1.11,1.42,1.75,2.28l2,2.57,1.95,2.55,1.68,2.25H103l-10.3-13.34Zm0-18.48v15.58h7.07a7.87,7.87,0,0,0,3.1-.62A8.22,8.22,0,0,0,97.14,194a7.59,7.59,0,0,0,2.24-5.43,8.12,8.12,0,0,0-.59-3.08,7.48,7.48,0,0,0-1.65-2.48,8,8,0,0,0-2.51-1.67,7.71,7.71,0,0,0-3.1-.63Z" transform="translate(-1.82)" fill="#fff"/><path d="M117.07,177.85v34.72h-2.91V177.85Z" transform="translate(-1.82)" fill="#fff"/><path d="M140.23,177.52q3.63,8.52,7.2,17T154.62,212l-2.51.66-5.67-13H134.29l-5.67,13.13L126,212.1Zm5.09,19.67-5.09-13.07c-.3.79-.62,1.62-.95,2.47s-.69,1.81-1.06,2.84-.8,2.18-1.29,3.43-1,2.7-1.58,4.33Z" transform="translate(-1.82)" fill="#fff"/><path d="M190.2,178.31V212.9l-23.43-28.19v27.86h-2.91V177.19l23.43,28.18V178.31Z" transform="translate(-1.82)" fill="#fff"/><path d="M256.72,210.92l-2.37,1.84-23.1-21.25-1,1v20.07h-2.91v-43.5h2.91v19.34l22.17-19.73,2,2-21,18.75Z" transform="translate(-1.82)" fill="#fff"/><path d="M1.84,246.23l0-13H6.46a4.47,4.47,0,0,1,2.11.5,4,4,0,0,1,1.54,1.34,3.2,3.2,0,0,1,.57,1.84,3.24,3.24,0,0,1-.57,1.83,4.13,4.13,0,0,1-1.54,1.35,4.59,4.59,0,0,1-2.11.5H2.74v5.64Zm.9-6.58H6.46a3.85,3.85,0,0,0,1.66-.37,3.15,3.15,0,0,0,1.21-1,2.34,2.34,0,0,0,0-2.76,3.06,3.06,0,0,0-1.21-1,3.71,3.71,0,0,0-1.66-.37H2.72Z" transform="translate(-1.82)" fill="#fff"/><path d="M28.34,240.19H20.66v6h-.92v-13h.92v6h7.68v-6h.9v13h-.9Z" transform="translate(-1.82)" fill="#fff"/><path d="M44.86,246.37a6.43,6.43,0,0,1-3.3-.89,6.63,6.63,0,0,1-2.4-2.42,6.67,6.67,0,0,1,2.4-9.08,6.56,6.56,0,0,1,6.6,0,6.7,6.7,0,0,1,2.4,9.08,6.63,6.63,0,0,1-2.4,2.42A6.43,6.43,0,0,1,44.86,246.37Zm0-12.36a5.41,5.41,0,0,0-2.84.77A5.66,5.66,0,0,0,40,236.86a5.73,5.73,0,0,0,0,5.74A5.81,5.81,0,0,0,42,244.68a5.62,5.62,0,0,0,5.68,0,5.78,5.78,0,0,0,2.06-2.08,5.75,5.75,0,0,0-2.06-7.82A5.41,5.41,0,0,0,44.86,234Z" transform="translate(-1.82)" fill="#fff"/><path d="M70,233.23v.92H64.88v12.08H64V234.15H58.8v-.92Z" transform="translate(-1.82)" fill="#fff"/><path d="M84.08,246.37a6.43,6.43,0,0,1-3.3-.89,6.63,6.63,0,0,1-2.4-2.42,6.67,6.67,0,0,1,2.4-9.08,6.56,6.56,0,0,1,6.6,0,6.7,6.7,0,0,1,2.4,9.08,6.63,6.63,0,0,1-2.4,2.42A6.43,6.43,0,0,1,84.08,246.37Zm0-12.36a5.41,5.41,0,0,0-2.84.77,5.66,5.66,0,0,0-2.07,2.08,5.73,5.73,0,0,0,0,5.74,5.81,5.81,0,0,0,2.07,2.08,5.62,5.62,0,0,0,5.68,0A5.78,5.78,0,0,0,89,242.6a5.75,5.75,0,0,0-2.06-7.82A5.41,5.41,0,0,0,84.08,234Z" transform="translate(-1.82)" fill="#fff"/><path d="M110.2,246.23h-4.7a6.42,6.42,0,0,1-3.28-.88A6.65,6.65,0,0,1,99.84,243a6.43,6.43,0,0,1-.88-3.31,6.36,6.36,0,0,1,.88-3.29,6.6,6.6,0,0,1,2.38-2.4,6.43,6.43,0,0,1,5.89-.33,6.47,6.47,0,0,1,2.17,1.56l-.66.62a5.65,5.65,0,0,0-4.12-1.8,5.48,5.48,0,0,0-2.82.76,5.63,5.63,0,0,0-2.06,2,5.43,5.43,0,0,0-.76,2.83,5.52,5.52,0,0,0,.76,2.84,5.84,5.84,0,0,0,2.06,2.07,5.49,5.49,0,0,0,2.82.77h3.76v-4.66H105v-.9h5.22Z" transform="translate(-1.82)" fill="#fff"/><path d="M127.72,246.23l-5.4-6.56h1.6a6.41,6.41,0,0,0,2.4-.38,3.31,3.31,0,0,0,1.18-1,2.33,2.33,0,0,0,.5-1.43,2.35,2.35,0,0,0-.42-1.33,3,3,0,0,0-1.2-1,3.85,3.85,0,0,0-1.8-.4h-3.64v12.1H120v-13h4.54a4.86,4.86,0,0,1,1.72.29,4.19,4.19,0,0,1,1.4.83,3.61,3.61,0,0,1,.89,1.18,3.11,3.11,0,0,1,.31,1.36,3.18,3.18,0,0,1-.66,2,3.87,3.87,0,0,1-1.56,1.25,4.45,4.45,0,0,1-1.21.35,12.22,12.22,0,0,1-1.25.07l4.7,5.7Z" transform="translate(-1.82)" fill="#fff"/><path d="M139.92,242.93l-1.54,3.3h-1l6.12-13.16,5.78,13.16h-1l-1.46-3.3Zm3.54-7.64L140.34,242h6.1Z" transform="translate(-1.82)" fill="#fff"/><path d="M158.12,246.23l0-13h4.64a4.47,4.47,0,0,1,2.11.5,4,4,0,0,1,1.54,1.34,3.2,3.2,0,0,1,.57,1.84,3.24,3.24,0,0,1-.57,1.83,4.13,4.13,0,0,1-1.54,1.35,4.59,4.59,0,0,1-2.11.5H159v5.64Zm.9-6.58h3.72a3.85,3.85,0,0,0,1.66-.37,3.15,3.15,0,0,0,1.21-1,2.34,2.34,0,0,0,0-2.76,3.06,3.06,0,0,0-1.21-1,3.71,3.71,0,0,0-1.66-.37H159Z" transform="translate(-1.82)" fill="#fff"/><path d="M184.62,240.19h-7.68v6H176v-13h.92v6h7.68v-6h.9v13h-.9Z" transform="translate(-1.82)" fill="#fff"/><path d="M200.5,240.75l5.12-7.52h1.08l-5.76,8.5v4.5H200v-4.5l-5.76-8.5h1.08Z" transform="translate(-1.82)" fill="#fff"/><path d="M222.06,239.27v.92H218.6v3.44h-.92v-3.44h-3.46v-.92h3.46v-3.48h.92v3.48Z" transform="translate(-1.82)" fill="#fff"/><path d="M231.42,246.23v-13h8.42v.92h-7.52v5.12h5.88v.94h-5.88v6Z" transform="translate(-1.82)" fill="#fff"/><path d="M249.42,246.23v-13h.9v13Z" transform="translate(-1.82)" fill="#fff"/><path d="M260.4,246.23v-13h.9v12.1h7.3v.9Z" transform="translate(-1.82)" fill="#fff"/><path d="M290.54,246.23V236l-5.76,8.22-5.84-8.24v10.3H278V233.07l6.74,9.52,6.66-9.52v13.16Z" transform="translate(-1.82)" fill="#fff"/></svg>